<?xml version="1.0" encoding="UTF-8" standalone="no"?>
<!-- Created with Inkscape (http://www.inkscape.org/) -->

<svg
   xmlns:dc="http://purl.org/dc/elements/1.1/"
   xmlns:cc="http://creativecommons.org/ns#"
   xmlns:rdf="http://www.w3.org/1999/02/22-rdf-syntax-ns#"
   xmlns:svg="http://www.w3.org/2000/svg"
   xmlns="http://www.w3.org/2000/svg"
   xmlns:sodipodi="http://sodipodi.sourceforge.net/DTD/sodipodi-0.dtd"
   xmlns:inkscape="http://www.inkscape.org/namespaces/inkscape"
   id="svg2"
   sodipodi:docname="cutekappa.svg"
   viewBox="0 0 1024.247 1293.5934"
   sodipodi:version="0.32"
   version="1.0"
   inkscape:output_extension="org.inkscape.output.svg.inkscape"
   inkscape:version="0.91 r13725"
   width="1024.2471"
   height="1293.5935">
  <defs
     id="defs9802" />
  <sodipodi:namedview
     id="base"
     bordercolor="#666666"
     inkscape:pageshadow="2"
     guidetolerance="10"
     pagecolor="#ffffff"
     gridtolerance="10000"
     inkscape:window-height="1036"
     inkscape:zoom="0.34"
     objecttolerance="10"
     showgrid="false"
     borderopacity="1.0"
     inkscape:current-layer="g9937"
     inkscape:cx="819.26609"
     inkscape:cy="828.07489"
     inkscape:window-y="0"
     inkscape:window-x="-1"
     inkscape:window-width="1920"
     inkscape:pageopacity="0.0"
     inkscape:document-units="px"
     fit-margin-top="0"
     fit-margin-left="0"
     fit-margin-right="0"
     fit-margin-bottom="0"
     inkscape:window-maximized="0" />
  <g
     id="layer1"
     inkscape:label="Layer 1"
     inkscape:groupmode="layer"
     transform="translate(346.30696,664.09669)">
    <g
       id="g9879"
       transform="matrix(2.8517225,0,0,2.485142,-1255.3567,-934.89225)">
      <g
         id="g9822">
        <g
           id="g9937">
          <g
             id="g9994">
            <path
               id="path3473"
               style="fill:#808000;fill-rule:evenodd;stroke-width:0"
               d="m 428.43,485.94 -11.11,70.71 2.02,42.43 -6.06,9.09 c 0,0 -8.08,9.09 -3.03,12.12 5.05,3.03 17.17,7.07 17.17,7.07 0,0 1.01,4.04 11.11,1.01 10.1,-3.03 14.14,-1.01 20.21,-5.05 6.06,-4.04 11.11,-5.05 15.15,-10.1 4.04,-5.05 5.05,0 4.04,-8.08 -1.01,-8.08 -3.03,-9.09 -3.03,-14.14 0,-5.05 2.02,-14.15 2.02,-14.15 0,0 4.04,-17.17 5.05,-21.21 1.01,-4.04 3.03,-17.17 6.06,-23.23 3.03,-6.06 11.11,-30.31 11.11,-30.31 l 0,-4.04 -70.71,-12.12 z"
               inkscape:connector-curvature="0" />
            <path
               id="path3475"
               style="fill:#808000;fill-rule:evenodd;stroke-width:0"
               d="m 510.25,496.04 1.01,25.26 5.05,20.2 c 0,0 4.04,11.11 5.05,15.15 1.02,4.04 4.05,18.18 4.05,18.18 l 6.06,15.16 6.06,3.03 0,14.14 11.11,9.09 c 0,0 -1.01,3.03 14.14,5.05 15.15,2.02 27.28,-3.03 31.32,-7.07 4.04,-4.04 15.15,-16.16 15.15,-16.16 0,0 -2.02,-11.11 -6.06,-14.14 -4.04,-3.04 -11.11,-10.11 -11.11,-10.11 0,0 1.01,10.11 1.01,-2.02 l 0,-20.2 c 0,-9.09 -4.04,-22.22 -4.04,-22.22 0,0 -1.02,-9.09 -2.03,-18.19 -1.01,-9.09 0,-22.22 -2.02,-26.26 -2.02,-4.04 -2.02,-9.09 -5.05,-14.14 -3.03,-5.05 -7.07,-12.12 -7.07,-12.12 l -62.63,37.37 z"
               inkscape:connector-curvature="0" />
            <path
               id="path3515"
               style="fill:#576814;fill-opacity:1;fill-rule:evenodd;stroke-width:0"
               d="m 426.92,270.27 c 0,0 -59.6,46.47 -57.08,87.38 2.53,40.91 3.03,151.52 128.29,152.53 125.26,1.01 130.82,-133.34 130.82,-133.34 0,0 -17.18,-124.75 -88.39,-114.65 -71.22,10.1 -113.64,9.6 -113.64,8.08 z"
               inkscape:connector-curvature="0" />
            <path
               id="path3535"
               style="fill:#3f4b17;fill-rule:evenodd"
               d="m 588.57,406.95 32.14,-49.28"
               inkscape:connector-curvature="0" />
            <path
               id="path3533"
               style="fill:#3f4b17;fill-rule:evenodd"
               d="m 587.86,391.24 c 3.57,-2.86 23.57,-33.57 23.57,-33.57 l -2.14,0"
               inkscape:connector-curvature="0" />
            <path
               id="path3537"
               style="fill:#3f4b17;fill-rule:evenodd"
               d="m 589.29,422.67 35.71,-62.15 -1.43,0.72"
               inkscape:connector-curvature="0" />
            <path
               id="path3529"
               style="fill:#808000;fill-rule:evenodd;stroke-width:0"
               d="m 555.71,283.91 c 0,0 47.98,17.68 51.01,19.19 3.03,1.52 18.69,14.65 18.69,14.65 l 9.09,8.59 c 0,0 12.12,11.11 14.14,12.12 2.02,1.01 2.53,1.51 6.07,2.02 3.53,0.5 17.67,1.51 17.67,1.51 l -2.02,6.06 -4.96705,5.38975 c 0,0 10.01705,5.73025 10.52705,7.75025 0.5,2.02 2.02,6.56 2.02,6.56 0,0 -9.86754,0.88123 -9.86754,3.40123 0,2.53 5.82754,9.22877 3.80754,11.24877 -2.02,2.02 -8.34754,-0.61803 -8.34754,-0.61803 l 2.78754,8.19803 -4.54,6.56 c 0,0 -4.87975,-1.77754 -7.39975,-3.79754 -2.53,-2.02 0.32975,1.27754 -6.24025,-1.75246 -6.57,-3.03 -4.57074,-2.94705 -7.60074,-8.50705 -3.03,-5.56 -3.50926,-2.10295 -4.51926,-5.13295 -1.01,-3.03 -3.51926,-7.90975 -3.51926,-7.90975 0,0 -0.52074,0.32975 -7.59074,-2.70025 -7.08,-3.03 -14.15,-2.52 -18.69,-5.05 -4.55,-2.52 -11.62,-5.55 -14.65,-7.57 -3.03,-2.02 -1.51,-1.52 -5.56,-3.03 -4.04,-1.52 -12.62,-3.04 -12.62,-3.04 z"
               inkscape:connector-curvature="0"
               sodipodi:nodetypes="ccccsccccccssccccssscccsccc" />
            <path
               id="path3527"
               style="fill:#808000;fill-rule:evenodd;stroke-width:0"
               d="m 435.5,301.08 -78.79,52.03 c 0,0 -5.56,2.52 -7.07,-0.51 -1.52,-3.03 -9.09,-7.58 -9.09,-7.58 l -9.09,-0.5 c 0,0 -4.55,5.56 -4.55,8.59 0,3.03 4.30754,8.60074 4.30754,8.60074 0,0 -0.12877,4.19951 -2.14877,6.21951 -2.02,2.02 -7.71877,4.86975 -7.71877,4.86975 0,0 -3.03,4.04 -2.52,6.06 0.5,2.02 1.01,5.06 3.03,5.06 2.02,0 7.70877,-0.30902 7.70877,-0.30902 L 325.9,388.97 c 0,0 -1.01,5.05 1.01,5.55 2.02,0.51 9.88828,-0.96852 9.88828,-0.96852 0,0 -0.79828,0.96852 -0.79828,3.49852 l 0,4.54 4.55,3.03 c 0,0 1.01,1.52 3.53,-0.5 2.53,-2.02 3.03,-4.55 5.56,-5.56 2.52,-1.01 -6.06,-3.53 11.11,-6.56 17.17,-3.03 24.75,-8.59 29.8,-9.6 5.05,-1.01 21.72,-4.04 21.72,-4.04 z"
               inkscape:connector-curvature="0"
               sodipodi:nodetypes="cccccscsccsccccsccccsscc" />
            <path
               id="path3517"
               style="fill:#eeffaa;fill-rule:evenodd;stroke-width:0"
               d="m 445.6,272.8 c 0,0 -101.01,169.7 2.53,229.3 103.54,59.6 137.38,-65.66 137.38,-65.66 0,0 -1.52,-149.5 -36.87,-164.15 -35.36,-14.64 -102.53,1.52 -103.04,0.51 z"
               inkscape:connector-curvature="0" />
            <path
               id="path3501"
               style="fill:#808000;fill-rule:evenodd;stroke-width:0"
               d="m 487.52,115.72 c 0,0 -83.84,1.01 -90.91,99.5 -7.07,98.49 101.52,82.33 101.52,82.33 0,0 84.35,-7.07 85.86,-95.46 1.52,-88.39 -94.95,-86.37 -96.47,-86.37 z"
               inkscape:connector-curvature="0" />
            <path
               id="path3477"
               style="fill:#808000;fill-rule:evenodd;stroke-width:0"
               d="m 484.49,345.02 c 0,0 1.52,13.14 -3.03,13.64 -4.54,0.51 -9.59,0.51 -9.59,0.51 l -2.02,0.5 c 0,0 -5.56,4.55 -0.51,6.57 5.05,2.02 10.61,0.5 10.61,0.5 l 3.53,1.01 c 0,0 2.53,-1.01 2.53,4.55 0,5.55 0.5,10.61 0.5,10.61 l 0,6.06 c 0,0 2.53,3.03 0.51,4.54 -2.02,1.52 -6.57,2.02 -6.57,2.02 l -6.56,0.51 c 0,0 -9.09,4.54 -1.52,6.06 7.58,1.51 12.12,-1.01 12.12,-1.01 l 4.04,1.01 c 0,0 1.52,3.03 2.03,6.06 0.5,3.03 0.5,6.06 0.5,6.06 l 0,6.06 1.01,8.08 2.53,6.06 4.54,-0.5 c 0,0 2.02,-3.03 2.02,-7.07 0,-4.04 -2.02,-7.58 -2.02,-9.6 0,-2.02 0,-5.05 1.01,-7.07 1.01,-2.02 1.52,-4.04 3.54,-5.05 2.02,-1.01 5.05,0 7.07,-1.52 2.02,-1.51 11.11,-6.56 11.11,-6.56 l 3.54,-6.57 c 0,0 4.54,0.51 -1.52,0 -6.06,-0.5 -4.04,-0.5 -7.07,-0.5 -3.03,0 -10.61,1.51 -10.61,1.51 0,0 -7.57,1.01 -7.07,-6.56 0.51,-7.58 0,-14.65 0,-14.65 0,0 3.54,-3.54 6.06,-3.54 l 11.62,0 5.05,-4.54 -6.06,-3.54 c 0,0 -5.05,-0.5 -7.07,-0.5 -2.02,0 -7.58,0.5 -7.58,0.5 0,0 -6.56,-2.02 -6.56,-6.06 0,-4.04 -0.51,-12.12 -0.51,-12.12 l -0.5,-9.09 c 0,0 0,-11.11 -5.56,-1.52 -5.56,9.6 -2.53,11.11 -2.53,11.11 l -1.01,4.04 z"
               inkscape:connector-curvature="0" />
            <path
               id="path3481"
               style="fill:none;stroke:#000000;stroke-width:1px"
               d="m 416.31,228.35 -6.06,12.63"
               inkscape:connector-curvature="0" />
            <path
               id="path3483"
               style="fill:none;stroke:#000000;stroke-width:1px"
               d="m 423.89,228.86 c 0,0 -5.06,8.58 -5.06,10.6"
               inkscape:connector-curvature="0" />
            <path
               id="path3485"
               style="fill:none;stroke:#000000;stroke-width:1px"
               d="m 430.45,232.39 c 0,0 -9.6,8.59 -8.59,10.1 1.02,1.52 1.02,1.01 1.02,1.01"
               inkscape:connector-curvature="0" />
            <path
               id="path3487"
               style="fill:none;stroke:#000000;stroke-width:1px"
               d="m 436.51,234.92 c 0,0 -6.56,6.56 -6.06,9.09"
               inkscape:connector-curvature="0" />
            <path
               id="path3489"
               style="fill:none;stroke:#000000;stroke-width:1px"
               d="m 542.58,227.85 -4.04,9.09 2.02,0"
               inkscape:connector-curvature="0" />
            <path
               id="path3491"
               style="fill:none;stroke:#000000;stroke-width:1px"
               d="m 549.65,227.85 -3.03,9.09"
               inkscape:connector-curvature="0" />
            <path
               id="path3493"
               style="fill:none;stroke:#000000;stroke-width:1px"
               d="m 556.72,229.36 -2.53,7.07 -1.01,0.51 1.52,-1.52"
               inkscape:connector-curvature="0" />
            <path
               id="path3495"
               style="fill:none;stroke:#000000;stroke-width:2;stroke-linecap:round;stroke-linejoin:round"
               d="m 413.78,180.87 c 0,0 14.15,-22.22 20.71,-17.67"
               inkscape:connector-curvature="0" />
            <path
               id="path3499"
               style="fill:none;stroke:#000000;stroke-width:2;stroke-linecap:round;stroke-linejoin:round"
               d="m 556.14535,182.96837 c 0,0 -7.07,-16.16 -10.1,-15.65 -3.03,0.5 -8.08,3.53 -8.08,3.53"
               inkscape:connector-curvature="0" />
            <path
               id="path3503"
               style="fill:#000000;fill-opacity:1;fill-rule:evenodd;stroke-width:0"
               d="m 435,182.39 c 0,0 -20.21,5.05 -19.7,15.15 0.5,10.1 6.56,22.23 14.14,22.73 7.58,0.51 27.28,-7.07 27.28,-14.65 0,-7.57 -6.07,-22.22 -21.72,-23.23 z"
               inkscape:connector-curvature="0" />
            <path
               id="path3505"
               style="fill:#000000;fill-opacity:1;fill-rule:evenodd;stroke-width:0"
               d="m 548.13,185.93 c 0,0 -25.75,-9.6 -28.79,14.64 -3.03,24.25 25.26,21.22 25.26,21.22 0,0 20.2,-6.57 20.2,-16.67 0,-10.1 -16.16,-20.2 -16.67,-19.19 z"
               inkscape:connector-curvature="0" />
            <path
               style="fill:#c8c152;fill-opacity:1;fill-rule:evenodd;stroke:#000000;stroke-width:3;stroke-linecap:round;stroke-linejoin:round;stroke-miterlimit:4;stroke-dasharray:none;stroke-opacity:1"
               d="m 447.52856,241.98032 c 0,0 21.79789,35.06934 39.65847,34.65105 17.86059,-0.4183 39.33832,-37.76116 39.33832,-37.76116 0,0 -20.12276,-40.09256 -39.18739,-39.8094 -19.06463,0.28316 -39.8094,42.91951 -39.8094,42.91951 z"
               id="path9804"
               inkscape:connector-curvature="0"
               sodipodi:nodetypes="czczc" />
            <path
               id="path3507"
               style="fill:#333333;fill-rule:evenodd"
               d="m 472.37,226.84 8.59,-5.56 c 0,0 2.52,5.56 0.5,8.59 -2.02,3.03 -5.55,7.07 -8.08,5.55 -2.52,-1.51 -0.5,-8.58 -1.01,-8.58 z"
               inkscape:connector-curvature="0" />
            <path
               id="path3509"
               style="fill:#333333;fill-rule:evenodd"
               d="m 495.1,223.81 c 0,0 -2.52,8.08 0.51,9.59 3.03,1.52 11.61,-0.5 11.11,-3.53 -0.51,-3.03 -9.09,-10.61 -11.62,-6.06 z"
               inkscape:connector-curvature="0" />
            <path
               id="path3511"
               style="fill:#f9f9f9;fill-rule:evenodd"
               d="m 436.51,194.01 c 0,0 5.56,-6.06 8.59,-4.04 3.03,2.02 8.08,7.07 5.55,8.58 -2.52,1.52 -5.55,7.07 -8.08,5.56 -2.52,-1.52 -5.55,-9.6 -6.06,-10.1 z"
               inkscape:connector-curvature="0" />
            <path
               id="path3513"
               style="fill:#f9f9f9;fill-rule:evenodd"
               d="m 548.13,193 c 0,0 -5.55,1.51 -5.55,5.55 0,4.04 7.07,4.55 7.07,4.55 l 5.55,-4.55 c 0,0 -3.53,-5.55 -7.07,-5.55 z"
               inkscape:connector-curvature="0" />
            <path
               id="path3519"
               style="fill:#3f4b17;fill-rule:evenodd"
               d="m 554.19,595.54 c 0,0 20.71,7.58 24.75,-7.07 4.04,-14.65 3.03,-6.06 3.03,-6.06"
               inkscape:connector-curvature="0" />
            <path
               id="path3521"
               style="fill:#3f4b17;fill-rule:evenodd"
               d="m 427.42,603.62 c 0,0 21.72,8.59 25.76,3.03"
               inkscape:connector-curvature="0" />
            <path
               id="path3523"
               style="fill:#3f4b17;fill-rule:evenodd"
               d="m 419.34,612.21 c 0,0 33.33,9.09 37.88,2.02 4.55,-7.07 5.56,-4.55 5.56,-4.55"
               inkscape:connector-curvature="0" />
            <path
               id="path3525"
               style="fill:#3f4b17;fill-rule:evenodd"
               d="m 557.73,608.67 c 0,0 33.34,5.05 35.36,-4.54 2.02,-9.6 1.01,-0.51 1.01,-0.51"
               inkscape:connector-curvature="0" />
            <path
               id="path3531"
               style="fill:#3f4b17;fill-rule:evenodd"
               d="m 587.14,374.81 12.15,-15 1.42,-2.14"
               inkscape:connector-curvature="0" />
            <path
               id="path3539"
               style="fill:#3f4b17;fill-rule:evenodd"
               d="m 587.86,446.24 36.43,-75"
               inkscape:connector-curvature="0" />
            <path
               id="path3541"
               style="fill:#3f4b17;fill-rule:evenodd"
               d="m 580.71,464.81 c 0,0 39.29,-45.72 37.86,-56.43"
               inkscape:connector-curvature="0" />
            <path
               id="path3543"
               style="fill:#3f4b17;fill-rule:evenodd"
               d="m 377.14,409.81 15.72,-27.14"
               inkscape:connector-curvature="0" />
            <path
               id="path3545"
               style="fill:#3f4b17;fill-rule:evenodd"
               d="m 383.57,418.38 15,-32.86"
               inkscape:connector-curvature="0" />
            <path
               id="path3547"
               style="fill:#3f4b17;fill-rule:evenodd"
               d="m 386.43,434.81 14.28,-39.29 -2.14,2.86"
               inkscape:connector-curvature="0" />
            <path
               id="path3549"
               style="fill:#3f4b17;fill-rule:evenodd"
               d="m 392.14,445.52 7.15,-22.14"
               inkscape:connector-curvature="0" />
            <path
               id="path3551"
               style="fill:#3f4b17;fill-rule:evenodd"
               d="m 387.14,326.24 c 2.86,-2.86 39.29,-32.15 39.29,-32.15"
               inkscape:connector-curvature="0" />
            <path
               id="path3553"
               style="fill:#3f4b17;fill-rule:evenodd"
               d="m 395,308.38 30,-21.43"
               inkscape:connector-curvature="0" />
            <path
               id="path3555"
               style="fill:#3f4b17;fill-rule:evenodd"
               d="m 444.29,593.38 c 22.14,-19.29 18.57,-15.71 22.14,-19.29"
               inkscape:connector-curvature="0" />
            <path
               id="path3557"
               style="fill:#3f4b17;fill-rule:evenodd"
               d="m 454.29,599.81 c 0,0 17.14,-12.14 18.57,-17.14"
               inkscape:connector-curvature="0" />
            <path
               id="path3559"
               style="fill:#3f4b17;fill-rule:evenodd"
               d="m 570,555.52 c 0,0 12.86,-60.71 10,-66.43"
               inkscape:connector-curvature="0" />
            <path
               id="path3561"
               style="fill:#3f4b17;fill-rule:evenodd"
               d="m 545.71,579.81 c 0,0 -27.85,-36.43 -27.14,-50.72"
               inkscape:connector-curvature="0" />
            <path
               id="path3563"
               style="fill:#3f4b17;fill-rule:evenodd"
               d="m 477.86,525.52 c 0,0 -22.86,31.43 -23.57,35.72"
               inkscape:connector-curvature="0" />
            <path
               id="path3565"
               style="fill:#3f4b17;fill-rule:evenodd"
               d="m 444.29,579.09 c 0,0 -7.15,13.58 -6.43,18.58 0.71,5 0.71,-5.72 0.71,-5.72"
               inkscape:connector-curvature="0" />
            <path
               id="path3569"
               style="fill:#3f4b17;fill-rule:evenodd"
               d="m 582.86,523.38 c 0,0 7.85,25.71 4.28,37.14 -3.57,11.43 0.72,0.72 0.72,0.72"
               inkscape:connector-curvature="0" />
            <path
               id="path3571"
               style="fill:#3f4b17;fill-rule:evenodd"
               d="m 588.57,346.95 57.14,19.29"
               inkscape:connector-curvature="0" />
            <path
               id="path3573"
               style="fill:#3f4b17;fill-rule:evenodd"
               d="m 357.86,387.67 c 3.57,-0.72 44.28,-17.86 44.28,-17.86"
               inkscape:connector-curvature="0" />
            <path
               style="fill:none;fill-rule:evenodd;stroke:#000000;stroke-width:2.98386788;stroke-linecap:round;stroke-linejoin:round;stroke-miterlimit:4;stroke-dasharray:none;stroke-opacity:1"
               d="m 447.9674,241.36826 77.32384,-1.88598"
               id="path9806"
               inkscape:connector-curvature="0" />
            <path
               style="fill:#727200;fill-opacity:1;fill-rule:evenodd;stroke:none;stroke-width:1px;stroke-linecap:butt;stroke-linejoin:miter;stroke-opacity:1"
               d="m 433.55744,153.28033 5.49707,-13.2078 8.35673,-8.64261 8.35676,-8.64261 21.35615,-5.18555 12.99939,-0.86425 25.99877,4.3213 18.57056,6.04981 17.64204,9.50686 2.17024,17.73461 -4.64266,8.64261 -34.72651,15.40106 -61.22242,-5.19325 c -6.35133,-6.3507 -20.03889,-13.56949 -20.35612,-19.92018 z"
               id="path9812"
               inkscape:connector-curvature="0"
               sodipodi:nodetypes="cccccccccccccc" />
            <path
               style="fill:#7eb4e0;fill-opacity:1;fill-rule:evenodd;stroke:none;stroke-width:1px;stroke-linecap:butt;stroke-linejoin:miter;stroke-opacity:1"
               d="m 473.74026,119.2173 -26.05155,9.60833 -12.34832,16.43246 8.35675,13.82817 20.42762,5.18556 20.42761,6.04983 33.42701,-2.59278 20.27102,-6.70473 6.4997,-12.10732 2.1098,-11.43707 c 0,0 -15.88113,-9.50688 -20.52376,-9.50688 -4.64265,0 -27.85585,-6.91406 -27.85585,-6.91406 z"
               id="path9808"
               inkscape:connector-curvature="0"
               sodipodi:nodetypes="ccccccccccscc" />
            <path
               style="fill:#c7ba67;fill-opacity:1;fill-rule:evenodd;stroke:none;stroke-width:1px;stroke-linecap:butt;stroke-linejoin:miter;stroke-opacity:1"
               d="m 436.03908,144.68011 10.65726,-10.05587 8.14967,-6.077 13.16486,-6.75221 18.80693,0 18.18004,1.35044 21.94142,7.42744 15.67245,6.75221 6.26899,4.05132 3.76138,-13.50443 -7.52277,0 -5.01519,-8.10265 -9.40346,4.72656 -4.38829,-10.12833 -12.53795,3.37611 -3.7614,-8.77787 -8.14967,6.07699 -11.91106,-6.07699 -4.38828,4.72655 -8.14967,-2.70088 -3.1345,3.37609 -8.14966,-4.05132 -3.13449,7.42743 -6.89588,-3.37611 -5.64208,7.42744 -4.38828,-2.02567 -2.50759,9.45311 -8.77658,-2.02567 0.6269,5.40178 z"
               id="path9814"
               inkscape:connector-curvature="0"
               sodipodi:nodetypes="cccccccccccccccccccccccccccccc" />
            <path
               style="fill:#c7ba67;fill-opacity:1;fill-rule:evenodd;stroke:none;stroke-width:1px;stroke-linecap:butt;stroke-linejoin:miter;stroke-opacity:1"
               d="m 436.66403,142.50988 -6.78944,11.87993 6.75221,-1.22768 1.22767,9.20757 6.75222,1.22767 2.45535,6.75221 7.36605,-5.52453 0.61383,14.11826 7.97989,-10.43524 7.97989,9.8214 6.13837,-8.59372 8.59373,17.18745 6.13837,-11.66292 16.57362,7.97989 -1.22768,-9.8214 12.89059,4.9107 0,-7.36605 12.27675,4.9107 -1.22768,-7.97989 11.04908,0 -1.22768,-6.13837 8.59373,0 -5.52454,-10.43524 11.66291,2.45535 -7.36605,-8.59372 9.20757,-4.29687 -11.66292,-1.84151 -7.97988,18.41513 -14.11827,6.75221 -25.16733,3.68302 -26.39502,-2.45535 -28.85036,-11.66291 -3.68302,-8.59372 z"
               id="path9818"
               inkscape:connector-curvature="0"
               sodipodi:nodetypes="cccccccccccccccccccccccccccccccccc" />
            <path
               style="fill:#78acd7;fill-opacity:1;fill-rule:evenodd;stroke:none;stroke-width:1px;stroke-linecap:butt;stroke-linejoin:miter;stroke-opacity:1"
               d="m 473.45705,129.83631 -20.87048,11.66291 5.52454,6.75221 8.59373,4.29687 27.00885,8.59372 c 0,0 -12.89059,-11.66291 -17.18745,-11.04907 -4.29687,0.61383 -4.9107,-6.13838 -4.9107,-6.13838 0,0 4.29686,-4.9107 7.36605,-5.52454 3.06918,-0.61383 4.29686,-4.29686 9.8214,-3.06918 5.52453,1.22767 30.69187,-0.61384 26.39501,-1.84152 -4.29686,-1.22767 -41.74095,-3.68302 -41.74095,-3.68302 z"
               id="path9820"
               inkscape:connector-curvature="0" />
          </g>
        </g>
      </g>
    </g>
  </g>
  <metadata
     id="metadata9800">
    <rdf:RDF>
      <cc:Work>
        <dc:format>image/svg+xml</dc:format>
        <dc:type
           rdf:resource="http://purl.org/dc/dcmitype/StillImage" />
        <cc:license
           rdf:resource="http://creativecommons.org/publicdomain/zero/1.0/" />
        <dc:publisher>
          <cc:Agent
             rdf:about="http://openclipart.org/">
            <dc:title>Openclipart</dc:title>
          </cc:Agent>
        </dc:publisher>
        <dc:title>turtle character</dc:title>
        <dc:date>2008-10-01T16:37:07</dc:date>
        <dc:description />
        <dc:source>https://openclipart.org/detail/19473/turtle-character-by-shokunin</dc:source>
        <dc:creator>
          <cc:Agent>
            <dc:title>shokunin</dc:title>
          </cc:Agent>
        </dc:creator>
        <dc:subject>
          <rdf:Bag>
            <rdf:li>animal</rdf:li>
            <rdf:li>cartoon</rdf:li>
            <rdf:li>japanese character</rdf:li>
            <rdf:li>kids</rdf:li>
            <rdf:li>turtle</rdf:li>
          </rdf:Bag>
        </dc:subject>
      </cc:Work>
      <cc:License
         rdf:about="http://creativecommons.org/publicdomain/zero/1.0/">
        <cc:permits
           rdf:resource="http://creativecommons.org/ns#Reproduction" />
        <cc:permits
           rdf:resource="http://creativecommons.org/ns#Distribution" />
        <cc:permits
           rdf:resource="http://creativecommons.org/ns#DerivativeWorks" />
      </cc:License>
    </rdf:RDF>
  </metadata>
</svg>
